<svg xmlns="http://www.w3.org/2000/svg" viewBox="0 0 64 64" role="img" aria-label="Спутник kerbal.ru">
  <defs>
    <linearGradient id="bg" x1="8" y1="5" x2="55" y2="60" gradientUnits="userSpaceOnUse">
      <stop stop-color="#13271e"/>
      <stop offset="1" stop-color="#04100b"/>
    </linearGradient>
    <linearGradient id="panel" x1="13" y1="15" x2="48" y2="50" gradientUnits="userSpaceOnUse">
      <stop stop-color="#d5ff9d"/>
      <stop offset="1" stop-color="#7fc950"/>
    </linearGradient>
  </defs>
  <rect x="2" y="2" width="60" height="60" rx="16" fill="url(#bg)" stroke="#365a43" stroke-width="2"/>
  <circle cx="48" cy="16" r="3" fill="#ff9d48"/>
  <path d="M9 18.5 18.5 9l13 13-9.5 9.5zM32 42l9.5-9.5 13 13L45 55z" fill="url(#panel)" stroke="#efffe6" stroke-width="2.5" stroke-linejoin="round"/>
  <path d="m25.5 25.5 13 13M20.8 20.8l9.5-9.5M15.9 15.9l13 13M35.5 35.5l9.5-9.5M40.2 40.2l13 13M32 26l6-6 6 6-6 6z" fill="none" stroke="#efffe6" stroke-width="2.5" stroke-linecap="round" stroke-linejoin="round"/>
  <path d="M40.5 35.5a8 8 0 0 1 8 8M40.5 29.5a14 14 0 0 1 14 14" fill="none" stroke="#ff9d48" stroke-width="2.5" stroke-linecap="round"/>
</svg>
